<svg width="122" height="124" viewBox="0 0 122 124" fill="none" xmlns="http://www.w3.org/2000/svg">
<rect width="122" height="124" fill="white" fill-opacity="0.01"/>
<path d="M122 62C122 75.7132 117.527 89.0394 109.281 99.8933C101.035 110.747 89.4811 118.516 76.4277 121.984C63.3743 125.453 49.558 124.424 37.1408 119.061C24.7237 113.697 14.4065 104.3 7.80373 92.3416C1.201 80.3828 -1.31463 66.5364 0.650523 52.9695C2.61568 39.4026 8.95072 26.8806 18.6643 17.3633C28.3778 7.84592 40.9217 1.87026 54.3328 0.371439C67.744 -1.12738 81.2657 1.93522 92.7818 9.07995L61 62H122Z" fill="#1B2431"/>
<path d="M36.912 92.568C34.4373 92.568 32.0693 92.1413 29.808 91.288C27.5893 90.4347 25.776 89.1333 24.368 87.384C22.96 85.6347 22.256 83.4587 22.256 80.856C22.256 78.552 22.768 76.76 23.792 75.48C24.816 74.1573 26.096 73.24 27.632 72.728C29.168 72.216 30.6613 71.96 32.112 71.96C30.7467 73.4107 29.7013 74.904 28.976 76.44C28.2933 77.976 27.952 79.448 27.952 80.856C27.952 82.3067 28.3147 83.672 29.04 84.952C29.808 86.1893 30.9387 87.192 32.432 87.96C33.9253 88.7707 35.7813 89.176 38 89.176C39.92 89.176 41.776 88.856 43.568 88.216C45.4027 87.576 46.896 86.616 48.048 85.336C49.2427 84.056 49.84 82.456 49.84 80.536C49.84 78.7867 49.328 77.2933 48.304 76.056C47.3227 74.776 46.0427 73.6453 44.464 72.664C42.8853 71.64 41.2213 70.68 39.472 69.784C37.7227 68.8453 36.0587 67.8427 34.48 66.776C32.9013 65.7093 31.6 64.472 30.576 63.064C29.5947 61.656 29.104 59.9707 29.104 58.008C29.104 56.2587 29.5307 54.4027 30.384 52.44C31.28 50.4347 32.5387 48.5573 34.16 46.808C35.7813 45.0587 37.744 43.6507 40.048 42.584C42.352 41.4747 44.912 40.92 47.728 40.92C50.672 40.92 52.7413 41.5387 53.936 42.776C55.1307 44.0133 55.728 45.6347 55.728 47.64C55.728 49.2187 55.4507 50.904 54.896 52.696C54.3413 54.488 53.6587 56.1947 52.848 57.816C52.08 59.4373 51.3333 60.824 50.608 61.976C48.7307 61.592 47.792 60.504 47.792 58.712C47.792 57.816 47.9627 56.8133 48.304 55.704C48.688 54.5947 49.1147 53.4427 49.584 52.248C50.096 51.0533 50.5227 49.9013 50.864 48.792C51.248 47.64 51.44 46.6373 51.44 45.784C51.44 45.016 51.2053 44.4187 50.736 43.992C50.3093 43.5653 49.4133 43.352 48.048 43.352C46 43.352 44.1227 43.8 42.416 44.696C40.7093 45.592 39.216 46.7227 37.936 48.088C36.6987 49.4533 35.7387 50.904 35.056 52.44C34.3733 53.9333 34.032 55.2987 34.032 56.536C34.032 58.072 34.5227 59.3947 35.504 60.504C36.4853 61.5707 37.744 62.552 39.28 63.448C40.8587 64.344 42.5013 65.24 44.208 66.136C45.9573 67.032 47.6 68.0347 49.136 69.144C50.7147 70.2533 51.9947 71.576 52.976 73.112C53.9573 74.648 54.448 76.5253 54.448 78.744C54.448 80.9627 53.936 82.9253 52.912 84.632C51.9307 86.3387 50.5867 87.768 48.88 88.92C47.1733 90.1147 45.2747 91.0107 43.184 91.608C41.136 92.248 39.0453 92.568 36.912 92.568ZM64.8005 92.568C63.5205 92.568 62.3045 92.2267 61.1525 91.544C60.0432 90.8613 59.4885 89.9867 59.4885 88.92C59.4885 88.3653 59.5738 87.768 59.7445 87.128C59.9578 86.488 60.1498 85.8907 60.3205 85.336C61.6432 81.2827 62.8805 77.5067 64.0325 74.008C65.1845 70.4667 66.3365 67.0747 67.4885 63.832C68.6832 60.5467 69.9205 57.2613 71.2005 53.976C72.5232 50.6907 73.9952 47.256 75.6165 43.672C73.1845 44.2267 71.2645 44.9307 69.8565 45.784C68.4485 46.5947 67.5098 47 67.0405 47C66.8272 47 66.5072 46.8507 66.0805 46.552C65.6965 46.2533 65.3552 45.912 65.0565 45.528C64.7578 45.144 64.6085 44.8027 64.6085 44.504C65.8032 43.992 67.1898 43.4587 68.7685 42.904C70.3898 42.3493 72.1392 41.88 74.0165 41.496C75.8938 41.112 77.7712 40.92 79.6485 40.92C81.6538 40.92 83.7018 41.1973 85.7925 41.752C87.8832 42.264 89.8032 43.0533 91.5525 44.12C93.3445 45.144 94.7738 46.4453 95.8405 48.024C96.9498 49.56 97.5045 51.3733 97.5045 53.464C97.5045 55.7253 96.9925 57.6667 95.9685 59.288C94.9445 60.9093 93.5792 62.2747 91.8725 63.384C90.2085 64.4933 88.3952 65.3893 86.4325 66.072C84.4698 66.7547 82.5072 67.2667 80.5445 67.608C78.6245 67.9493 76.8965 68.184 75.3605 68.312C73.8245 68.44 72.6725 68.504 71.9045 68.504H71.5205C70.3258 72.728 69.1525 76.952 68.0005 81.176C66.8485 85.3573 65.7818 89.1547 64.8005 92.568ZM72.0965 66.52C74.4858 66.3493 76.8752 65.944 79.2645 65.304C81.6538 64.664 83.8085 63.7893 85.7285 62.68C87.6912 61.528 89.2485 60.0987 90.4005 58.392C91.5952 56.6853 92.1925 54.7013 92.1925 52.44C92.1925 50.3067 91.6165 48.5787 90.4645 47.256C89.3552 45.9333 87.9045 44.9307 86.1125 44.248C84.3632 43.5653 82.5072 43.2027 80.5445 43.16C79.0085 46.1467 77.5365 49.688 76.1285 53.784C74.7205 57.8373 73.3765 62.0827 72.0965 66.52Z" fill="#C98D8D"/>
</svg>
